<svg xmlns="http://www.w3.org/2000/svg" viewBox="0 0 929 929"><defs/><path d="M466 920a596 596 0 00-51-24 501 501 0 00-55-25 142391 142391 0 00-36-16l-78-22-78-22-14-32a154081 154081 0 00-47-107l26 11 111 47a3590 3590 0 0081 125l5-1a4961 4961 0 01133-42c3-1 3-1 31 8a1185 1185 0 0074 23 512 512 0 0040 12 7664 7664 0 00-136 67l-6-2zm16-33a6589 6589 0 0150-25l-6-2a406 406 0 01-20-7l-31-9-9-3-5 2a452 452 0 00-19 6l-33 10c-4 1-4 2 0 4a169 169 0 0117 7l6 3a3361 3361 0 0041 18l9-4zm-223-82a3922 3922 0 00-35-53 6859 6859 0 01-62-25l26 59 36 11a3438 3438 0 0035 8zm356 45l80-125 138-58a3252 3252 0 01-61 139 9566 9566 0 01-157 44zm102-58l34-11 27-60-32 13-32 14-16 26-18 27 37-9zm-275-86c0-2-1-2-2-3a7433 7433 0 00-164 2c-1 1-1 2-3 2h-2v-7c0-23 5-36 22-52 11-11 20-17 52-33 28-15 37-20 44-27 6-7 8-10 8-18 0-6 0-8-2-10-5-10-17-15-33-15-10 0-19 2-30 7-9 4-19 12-21 18v13l2 2-2 1-2 1a2204 2204 0 01-34-40h4c4 2 5 1 13-5a115 115 0 0190-27c19 3 32 10 41 20 11 11 15 23 14 40-1 13-4 23-12 32-10 12-20 18-51 30-34 14-44 18-53 25l-5 6v2h60l63-1c2-2 3-2 4-7 0-2 1-2 2-2l2 1v46h-2l-3-1zm148-5l1-3c8-1 8-2 8-16v-11h-54l-57 1c-2 1-3 3-3 5l-3 1h-2v-39l3-3a4659 4659 0 0177-84c17-19 21-24 21-26s-2-4-4-5c-2 0-2-1-2-3v-2h68v2l-1 3c-3 0-5 2-6 5v114l5 1c7 0 13-1 14-3l2-3c0-3 1-3 2-3h2v48h-2l-2-1-1-4c-1-3-3-4-13-4h-7v10c0 13 0 15 4 17 3 1 3 1 3 3v2h-53v-2zm9-104v-44l-2 2a3838 3838 0 00-77 85l40 1h39zM99 663l-2-3-2-2-4-6a301 301 0 01-9-13 2033 2033 0 01-36-50l-30-42c-6-8-6-6-2-19a400 400 0 0010-41l4-17a4225 4225 0 0022-86l1-3 4 8a12190 12190 0 0163 130 324 324 0 00-4 34l-1 5a114 114 0 01-1 11 68 68 0 01-1 10 2611 2611 0 01-12 84zm-18-80a222 222 0 002-14 691 691 0 006-42l1-8-5-10a3323 3323 0 00-25-47l-1 4a39777 39777 0 01-14 55l-3 13 2 4a970 970 0 0037 45zm753 73a138 138 0 01-2-15 180 180 0 00-3-20 173 173 0 00-2-14 184 184 0 01-2-15 334 334 0 00-2-20 2144 2144 0 00-6-44l-3-18 7-14a129914 129914 0 0059-117l2 4a1961 1961 0 0028 106 852 852 0 019 33l3 11-2 3-2 3a4450 4450 0 00-83 119l-1-2zm28-86a1593 1593 0 0029-44l-1-3a315 315 0 00-11-41l-7-24-9 18-14 28-6 11 2 11a4306 4306 0 009 56l8-12zm-595-89c0-6 1-7 3-7 3 0 7-2 8-5l1-146V179c-1-3-4-5-9-6h-2v-12h113v12h-3l-4 3c-3 2-3 6 0 12l2 5 1 1 1 1v1l1 1a116 116 0 0010 19l2 4 1 1v1l1 1 3 6a490 490 0 0115 26l3 7 2 4 2 4a233 233 0 0016 28l2 4 3 5 1 3 2 3 2 3a211 211 0 0012 24 71 71 0 006 10c3 6 6 10 6 7l1-1v-1l4-8a370 370 0 0018-31l4-8 2-3 4-7a82 82 0 007-13l2-3 1-3 2-3 3-6a76 76 0 008-14l2-3 1-3a121 121 0 007-11l5-9a490 490 0 0024-50l-1-5-4-2h-2v-12h112v8l-1 4c-5 1-6 1-8 3l-3 3v144c0 129 1 144 2 146s5 5 8 5c2 0 3 1 3 7v5h-96v-6c0-4 0-5 2-5l4-1 7-3 1-1c3-3 3-4 3-108a773 773 0 00-4-100 216 216 0 01-10 18 165 165 0 00-10 20 251 251 0 01-12 21 417 417 0 01-22 41l-2 3-1 3-3 5-2 4-2 3-1 3-1 1v2l-6 10a54 54 0 01-4 8l-2 3-1 2a278 278 0 01-11 20 316 316 0 01-17 31l-2 5-2 3-2 3-6 11-3 4-8-13-1-4-4-6a85 85 0 00-6-12l-6-12-3-6-1-1-6-12-3-5a157 157 0 01-10-18l-2-4a162 162 0 00-11-21l-2-4v-1a103 103 0 01-10-18l-3-5a138543 138543 0 01-46-85 6562 6562 0 001 209c1 2 4 5 7 6l5 1h4v11h-92zM52 373a271 271 0 002-29 3217 3217 0 009-116v-4l4-3 5-3 6-5 5-4 2-1h1c0-1 2-3 6-5l6-4 6-5a2413 2413 0 0091-66 12405 12405 0 01-30 136l-2 9-4 4a775 775 0 01-45 42 2237 2237 0 01-62 54zm37-69a3257 3257 0 0044-42l4-3 2-12a4800 4800 0 0111-51l-4 3a146 146 0 01-14 10 143 143 0 01-14 10 108 108 0 01-12 9l-7 5c-9 7-9 6-9 14l-1 9a431 431 0 000 48zm790 71l-6-6a2324 2324 0 00-83-78c-18-16-18-16-19-20a420 420 0 00-8-36 3204 3204 0 01-23-106c-1-2 0-1 7 3a6691 6691 0 00114 79l5 3v6a251 251 0 002 21 1628 1628 0 009 97 895 895 0 012 37zm-34-73a179 179 0 01-1-15 1482 1482 0 01-6-58 978 978 0 00-54-31 901 901 0 0115 63 2489 2489 0 0046 41zM729 126a368 368 0 00-26-1 999 999 0 00-77-4 3722 3722 0 00-36-1 68 68 0 01-16-12l-2-2a529 529 0 00-43-32 1393 1393 0 01-60-46l9-1a352 352 0 0020-3 2038 2038 0 00109-11h15a139598 139598 0 01114 113h-7zm-67-32l-28-28c-19-19-24-24-26-24l-9 1a1251 1251 0 01-55 6l6 5a7985 7985 0 0151 37 493 493 0 0054 3h7zm-462 31l6-7a76890 76890 0 0092-95l6-7h9l10 1a209 209 0 0126 2 304 304 0 0035 3 459 459 0 0053 4 122 122 0 0117 1l10 1 3 1-4 2a1757 1757 0 00-78 60 528 528 0 01-33 25l-4 3-10 1a1873 1873 0 00-100 4 2567 2567 0 00-29 2h-11zm81-32a1566 1566 0 0059-4 235 235 0 0124-18l25-19c1-1-3-1-12-2a1862 1862 0 01-63-4l-17 18-27 30 11-1z"/></svg>