<?xml version="1.0" standalone="no"?>
<!DOCTYPE svg PUBLIC "-//W3C//DTD SVG 20010904//EN"
 "http://www.w3.org/TR/2001/REC-SVG-20010904/DTD/svg10.dtd">
<svg version="1.0" xmlns="http://www.w3.org/2000/svg"
 width="1394.000000pt" height="1394.000000pt" viewBox="0 0 1394.000000 1394.000000"
 preserveAspectRatio="xMidYMid meet">
<metadata>
Created by potrace 1.14, written by Peter Selinger 2001-2017
</metadata>
<g transform="translate(0.000000,1394.000000) scale(0.100000,-0.100000)"
fill="#000000" stroke="none">
<path d="M9061 13745 c-63 -8 -140 -16 -170 -19 -31 -4 -72 -8 -91 -11 -19 -2
-61 -7 -92 -10 -110 -10 -173 -16 -208 -20 -53 -6 -216 -23 -395 -40 -88 -9
-171 -18 -185 -20 -14 -2 -59 -6 -100 -10 -41 -3 -82 -8 -90 -10 -8 -2 -51 -6
-95 -10 -44 -3 -91 -8 -105 -10 -14 -2 -56 -6 -95 -10 -38 -3 -108 -10 -155
-15 -47 -5 -114 -12 -150 -15 -36 -3 -73 -7 -82 -9 -43 -6 -70 16 532 -440 80
-60 147 -112 150 -115 3 -3 21 -17 40 -31 19 -13 40 -28 45 -32 6 -4 35 -27
65 -51 30 -24 82 -63 115 -87 33 -24 65 -49 71 -54 6 -6 22 -18 34 -26 12 -8
28 -20 34 -26 6 -5 160 -123 342 -261 l330 -251 160 -6 c87 -4 191 -9 229 -11
39 -2 129 -7 200 -10 72 -4 162 -8 200 -10 39 -2 129 -7 200 -10 318 -13 383
-16 430 -20 28 -2 120 -7 205 -10 85 -3 191 -8 235 -10 44 -2 143 -7 219 -11
l139 -6 -229 225 c-126 123 -281 276 -346 338 -64 63 -273 267 -465 455 -191
188 -427 418 -523 512 l-175 171 -55 0 c-30 -1 -107 -7 -169 -14z m293 -656
c111 -108 282 -276 380 -372 170 -166 178 -175 145 -172 -19 2 -101 6 -184 9
-82 4 -190 9 -240 11 -49 2 -146 7 -215 10 -293 13 -276 10 -360 73 -41 30
-77 58 -80 61 -3 4 -32 26 -65 51 -62 46 -64 48 -104 80 -13 11 -27 20 -30 20
-3 0 -22 14 -41 30 -49 42 -44 38 -155 120 -55 41 -105 80 -112 85 -29 24 -41
33 -97 75 l-59 45 114 12 c63 7 146 15 184 19 116 10 232 23 275 29 14 2 61 7
105 11 44 3 89 8 99 10 10 2 58 6 105 10 47 4 88 8 90 10 6 6 22 -9 245 -227z"/>
<path d="M4275 13424 c-154 -158 -304 -312 -334 -343 -30 -31 -124 -128 -210
-216 -751 -772 -771 -793 -771 -802 0 -2 17 -1 38 1 20 2 111 7 202 11 91 3
194 8 230 10 36 2 119 7 185 10 66 3 165 7 220 10 55 3 150 7 210 10 61 3 153
7 205 10 52 3 156 7 230 10 74 3 164 7 200 10 36 2 135 7 220 11 85 4 169 8
185 9 17 2 53 3 80 4 47 1 59 7 145 72 52 38 110 82 129 97 19 15 55 43 81 62
127 94 286 215 290 220 3 4 32 26 65 50 33 24 62 46 65 49 3 3 86 67 185 141
98 74 186 142 195 150 9 8 45 36 81 61 61 44 220 164 284 215 17 13 88 68 159
122 71 54 131 102 133 108 2 6 -16 11 -44 12 -40 2 -401 28 -628 46 -33 3 -91
7 -130 10 -121 10 -208 17 -255 21 -40 3 -83 7 -270 20 -151 11 -219 16 -260
20 -25 3 -79 7 -120 10 -90 6 -195 14 -270 20 -30 3 -120 9 -200 15 -80 6
-168 13 -195 16 l-51 6 -279 -288z m675 -179 c14 -2 70 -6 125 -10 55 -3 118
-8 140 -10 22 -2 81 -6 130 -10 50 -3 106 -8 125 -10 19 -2 82 -6 140 -10 58
-4 112 -9 120 -11 8 -1 33 -3 55 -3 47 -2 60 12 -122 -126 -65 -49 -120 -92
-123 -95 -3 -3 -66 -51 -140 -107 -74 -56 -180 -136 -234 -177 -55 -42 -104
-77 -110 -77 -39 -4 -91 -7 -246 -13 -96 -4 -202 -9 -235 -11 -33 -2 -112 -6
-175 -9 -63 -3 -171 -9 -239 -12 -84 -5 -122 -3 -120 4 2 6 108 117 234 247
127 130 277 286 335 346 l105 110 105 -6 c58 -4 116 -8 130 -10z"/>
<path d="M11060 12038 c0 -7 5 -29 10 -48 6 -19 20 -78 31 -130 25 -112 43
-191 99 -440 23 -102 43 -192 45 -200 2 -8 13 -58 25 -110 12 -52 30 -131 40
-175 42 -193 92 -414 120 -535 12 -52 23 -102 25 -110 13 -55 38 -169 56 -250
11 -52 22 -102 24 -110 18 -82 3 -64 210 -255 60 -55 121 -111 135 -125 15
-14 74 -68 131 -120 57 -52 131 -120 164 -151 88 -82 187 -174 371 -344 60
-55 122 -113 139 -128 16 -16 66 -61 109 -100 44 -40 86 -79 95 -88 9 -9 75
-69 146 -134 72 -66 132 -123 133 -127 7 -16 23 -7 18 10 -4 15 -13 100 -31
292 -9 102 -17 187 -20 215 -2 17 -9 84 -15 150 -6 66 -13 136 -16 155 -2 19
-11 107 -19 195 -8 88 -17 178 -20 200 -2 22 -11 114 -20 205 -9 91 -18 190
-21 220 -3 30 -7 73 -9 95 -3 22 -12 110 -20 195 -8 85 -19 196 -24 245 -6 50
-13 122 -16 160 -7 77 -15 88 -97 140 -46 30 -296 199 -518 350 -134 91 -335
228 -546 371 -82 55 -214 145 -294 199 -167 114 -411 278 -428 289 -7 4 -12 1
-12 -6z m750 -1013 c42 -30 352 -239 595 -403 61 -40 115 -79 122 -85 6 -7 16
-64 23 -127 6 -63 13 -133 15 -155 5 -41 22 -218 31 -315 3 -30 7 -75 10 -100
10 -95 23 -228 29 -295 4 -38 9 -78 11 -87 9 -30 -8 -20 -76 43 -94 88 -161
151 -285 264 -60 55 -120 111 -135 125 -14 14 -65 61 -113 105 -67 61 -90 88
-98 118 -8 30 -61 260 -84 367 -11 49 -36 157 -39 170 -7 22 -33 140 -61 270
-13 63 -28 126 -31 139 -7 22 -6 23 17 10 13 -7 44 -27 69 -44z"/>
<path d="M2860 11998 c-30 -22 -67 -49 -83 -60 -28 -22 -123 -89 -287 -205
-52 -37 -100 -72 -107 -78 -6 -5 -52 -39 -103 -75 -50 -36 -104 -74 -119 -85
-16 -11 -63 -45 -106 -75 -84 -60 -92 -65 -216 -155 -46 -33 -140 -100 -210
-150 -70 -49 -165 -117 -210 -149 -46 -33 -86 -62 -89 -66 -3 -3 -50 -37 -105
-75 -55 -38 -101 -73 -103 -77 -2 -4 -8 -8 -13 -8 -5 0 -17 -7 -26 -14 -10 -8
-46 -35 -80 -60 -54 -40 -63 -50 -64 -78 0 -18 -2 -40 -3 -48 -2 -8 -6 -68
-10 -133 -4 -65 -9 -126 -11 -135 -1 -9 -6 -75 -10 -147 -4 -71 -8 -137 -10
-145 -1 -8 -6 -69 -10 -135 -4 -66 -8 -127 -10 -135 -1 -8 -6 -64 -9 -125 -4
-60 -9 -128 -11 -150 -2 -22 -7 -89 -10 -150 -4 -60 -8 -123 -10 -140 -2 -16
-7 -79 -11 -140 -3 -60 -7 -117 -9 -125 -2 -8 -6 -67 -10 -131 -4 -64 -9 -132
-10 -150 -2 -19 -7 -83 -10 -144 l-8 -110 23 20 c12 11 39 36 60 55 20 19 86
80 145 135 60 55 136 125 170 156 89 84 113 106 216 200 52 48 110 102 130
120 33 31 166 153 258 237 20 19 61 57 91 85 30 28 84 78 120 111 70 66 263
243 314 289 114 104 136 130 142 165 3 20 10 51 14 67 5 17 11 41 14 55 5 28
217 968 246 1090 10 41 30 133 63 285 13 61 27 120 30 130 4 11 8 31 11 45 3
14 25 117 51 229 25 112 44 207 43 211 -2 3 -28 -11 -58 -32z m-651 -1164
c-22 -98 -50 -219 -60 -267 -10 -49 -23 -105 -28 -125 -6 -21 -18 -73 -27
-117 -9 -44 -23 -102 -30 -129 -8 -27 -14 -59 -14 -70 0 -11 -11 -30 -23 -41
-13 -11 -72 -65 -132 -120 -59 -55 -120 -111 -135 -125 -130 -120 -230 -212
-269 -249 -140 -132 -226 -204 -209 -175 3 5 9 56 12 114 4 58 9 130 11 160 5
68 13 178 20 290 3 47 8 103 10 125 2 22 7 83 10 135 9 154 8 150 82 199 36
25 71 50 77 56 6 6 56 42 111 80 55 38 102 73 103 77 2 4 10 8 17 8 7 0 15 4
17 8 2 4 41 34 88 67 47 32 87 62 90 65 3 4 50 37 105 76 55 38 107 74 115 81
43 36 95 69 98 63 1 -3 -16 -87 -39 -186z"/>
<path d="M3994 11537 c-3 -8 -4 -47 -2 -88 l3 -74 30 -3 c37 -4 110 -37 122
-54 33 -52 33 -58 33 -2180 0 -1387 -3 -2099 -10 -2103 -5 -3 -10 -17 -10 -31
0 -13 -4 -24 -9 -24 -5 0 -12 -8 -15 -18 -7 -21 -71 -52 -108 -52 -32 0 -38
-15 -38 -101 0 -63 2 -69 23 -74 12 -3 324 -4 692 -3 l670 3 0 68 c0 99 -4
107 -64 107 -88 0 -172 48 -186 105 -3 11 -4 713 -3 1559 l3 1539 30 -59 c17
-32 32 -61 35 -64 3 -3 21 -36 41 -75 51 -102 93 -179 99 -185 3 -3 18 -32 34
-65 17 -33 37 -71 47 -85 9 -14 20 -36 24 -50 4 -14 11 -27 14 -30 4 -3 23
-36 42 -75 63 -122 93 -180 99 -185 13 -12 40 -70 40 -84 0 -9 5 -16 10 -16 6
0 10 -6 10 -14 0 -8 3 -16 8 -18 4 -1 32 -52 62 -113 30 -60 57 -112 60 -115
5 -5 40 -69 87 -160 15 -30 31 -56 36 -58 4 -2 7 -12 7 -22 0 -10 3 -20 8 -22
6 -3 76 -131 106 -195 6 -13 14 -23 19 -23 4 0 7 -9 7 -19 0 -11 3 -21 8 -23
4 -1 23 -34 42 -73 19 -38 38 -71 43 -73 4 -2 7 -12 7 -22 0 -10 3 -20 8 -22
6 -3 40 -64 111 -203 14 -27 28 -52 31 -55 3 -3 25 -45 50 -95 25 -49 47 -92
50 -95 5 -5 42 -75 107 -200 15 -30 30 -57 33 -60 3 -3 23 -41 45 -85 22 -44
42 -82 45 -85 3 -3 22 -37 42 -76 21 -40 55 -105 76 -145 22 -41 57 -108 78
-149 22 -41 41 -77 44 -80 3 -3 16 -27 30 -55 31 -62 53 -65 83 -10 12 22 25
42 30 43 4 2 7 10 7 17 0 7 20 46 43 87 24 40 52 91 62 113 11 22 21 42 25 45
3 3 14 23 25 45 11 22 22 42 25 45 3 3 17 28 31 55 41 80 84 159 89 165 3 3
15 25 28 49 31 61 56 105 62 111 3 3 25 46 50 95 25 50 48 92 53 93 4 2 7 10
7 18 0 8 5 14 10 14 6 0 10 9 10 19 0 11 3 21 8 23 4 2 16 21 27 43 11 22 22
42 25 45 3 3 14 25 25 50 11 25 22 47 25 50 4 4 23 37 54 95 6 11 13 22 16 25
5 5 23 40 99 185 20 39 38 72 41 75 3 3 14 23 25 45 11 22 22 42 25 45 5 5 24
40 86 160 16 30 31 57 34 60 5 5 38 66 89 165 14 28 29 52 34 53 4 2 7 12 7
23 0 10 4 19 9 19 5 0 11 8 14 18 8 24 50 96 60 100 4 2 7 10 7 18 0 8 11 32
25 54 14 22 25 44 25 50 0 5 4 10 9 10 5 0 12 14 16 30 4 16 10 30 13 30 4 0
13 15 21 33 8 17 17 34 20 37 3 3 15 23 26 45 11 22 22 42 25 45 3 3 20 34 38
70 47 94 76 145 85 148 4 2 7 12 7 23 0 10 5 19 10 19 6 0 10 5 10 10 0 6 26
56 58 113 31 56 66 120 77 142 11 22 23 42 28 43 4 2 7 10 7 18 0 8 4 14 8 14
4 0 12 14 17 32 6 17 16 34 23 36 10 3 12 -297 10 -1544 -2 -1227 -6 -1548
-15 -1552 -7 -2 -13 -10 -13 -17 0 -24 -99 -65 -157 -65 -62 0 -66 -7 -61
-110 l3 -65 720 0 720 0 3 65 c4 92 -2 110 -38 110 -31 0 -100 28 -100 41 0 4
-6 14 -13 21 -38 40 -37 2 -37 2174 0 2083 0 2105 20 2147 15 32 30 46 63 60
23 9 54 17 68 17 19 0 28 6 33 23 7 28 7 106 0 135 l-6 22 -842 -2 -841 -3 0
-85 c0 -83 1 -85 25 -89 14 -1 37 -12 52 -23 26 -18 28 -25 28 -84 0 -36 -4
-64 -10 -64 -5 0 -10 -8 -10 -17 0 -20 -51 -126 -62 -131 -5 -2 -8 -11 -8 -21
0 -9 -6 -25 -14 -36 -7 -11 -26 -42 -41 -70 -16 -27 -39 -68 -52 -90 -13 -22
-33 -60 -45 -85 -12 -25 -26 -46 -30 -48 -4 -2 -8 -9 -8 -17 0 -7 -7 -18 -15
-25 -8 -7 -15 -21 -15 -31 0 -11 -4 -19 -9 -19 -5 0 -11 -8 -14 -17 -6 -18
-48 -94 -57 -103 -3 -3 -17 -27 -31 -55 -58 -111 -84 -160 -90 -165 -3 -3 -19
-30 -35 -60 -16 -30 -31 -57 -34 -60 -3 -3 -14 -23 -25 -45 -11 -22 -22 -42
-25 -45 -3 -3 -12 -18 -20 -35 -8 -16 -17 -32 -20 -35 -3 -3 -14 -24 -25 -47
-11 -24 -22 -43 -25 -43 -3 0 -14 -20 -25 -45 -11 -25 -23 -45 -27 -45 -5 0
-8 -5 -8 -10 0 -6 -27 -58 -60 -116 -33 -58 -60 -110 -60 -115 0 -5 -3 -9 -8
-9 -4 0 -16 -20 -27 -45 -11 -25 -22 -45 -25 -45 -3 0 -14 -20 -24 -45 -11
-25 -22 -45 -25 -45 -3 0 -12 -15 -20 -32 -8 -18 -29 -57 -48 -86 -18 -29 -33
-54 -33 -56 0 -2 -16 -33 -36 -68 -79 -136 -95 -165 -116 -208 -12 -25 -24
-47 -27 -50 -5 -4 -23 -36 -55 -95 -6 -11 -13 -22 -16 -25 -3 -3 -18 -31 -34
-62 -27 -54 -56 -77 -56 -43 0 8 -4 15 -10 15 -5 0 -10 9 -10 20 0 11 -3 20
-7 20 -5 0 -17 20 -28 45 -11 25 -23 45 -27 45 -5 0 -8 4 -8 9 0 5 -27 56 -59
114 -33 59 -67 125 -77 147 -10 22 -21 40 -26 40 -4 0 -8 7 -8 15 0 8 -4 15
-10 15 -5 0 -10 7 -10 15 0 9 -6 26 -14 38 -27 42 -67 112 -89 157 -12 25 -24
47 -27 50 -3 3 -14 23 -25 45 -11 22 -22 42 -25 45 -3 3 -14 23 -26 45 -11 22
-36 67 -54 100 -18 33 -43 78 -54 100 -12 22 -23 42 -26 45 -3 3 -14 23 -25
45 -11 22 -22 42 -25 45 -3 3 -17 28 -31 55 -42 83 -84 160 -89 165 -3 3 -14
23 -25 45 -11 22 -22 42 -25 45 -3 3 -12 19 -20 35 -8 17 -17 32 -20 35 -3 3
-25 46 -50 95 -25 50 -48 92 -52 93 -5 2 -8 10 -8 17 0 7 -3 15 -7 17 -5 2
-17 21 -28 43 -11 22 -22 42 -25 45 -4 3 -16 25 -28 50 -12 25 -42 81 -67 125
-24 44 -55 100 -67 125 -12 25 -24 47 -28 50 -5 5 -37 63 -87 160 -15 30 -31
57 -35 58 -5 2 -8 11 -8 21 0 9 -5 22 -12 29 -6 6 -11 39 -12 73 -1 62 -1 63
39 90 22 15 51 29 65 31 23 3 25 7 28 68 2 35 0 75 -3 87 l-5 23 -851 0 c-702
0 -851 -2 -855 -13z"/>
<path d="M13138 8273 c-20 -37 -147 -288 -283 -558 -267 -529 -638 -1262 -663
-1309 -14 -26 -13 -42 2 -155 9 -69 18 -137 20 -151 2 -14 7 -47 10 -75 3 -27
8 -61 10 -75 2 -14 7 -47 10 -75 3 -27 8 -61 10 -75 2 -14 8 -52 12 -85 4 -33
8 -62 9 -65 0 -3 4 -32 9 -65 7 -59 9 -73 20 -150 3 -22 8 -62 12 -90 3 -27 7
-57 9 -65 2 -8 6 -33 9 -55 7 -55 20 -149 21 -155 1 -3 5 -36 10 -75 5 -38 9
-72 10 -75 1 -3 5 -36 10 -75 5 -38 9 -72 10 -75 1 -3 5 -30 9 -60 5 -30 10
-63 12 -74 2 -10 6 -44 10 -75 3 -31 8 -63 9 -71 2 -9 6 -43 10 -75 4 -33 9
-69 11 -80 3 -11 7 -46 11 -78 3 -32 9 -60 14 -62 6 -4 36 34 101 128 16 23
85 118 95 132 4 6 22 30 38 55 17 25 35 50 40 57 6 6 26 34 45 62 19 28 51 73
70 99 19 27 69 97 110 156 74 105 142 201 157 221 4 6 22 30 38 55 17 25 34
50 38 55 4 6 24 34 45 62 110 155 139 196 197 278 132 186 161 227 195 274 19
27 42 59 50 71 8 12 32 45 53 73 41 56 41 55 26 112 -5 22 -11 47 -13 56 -2 8
-33 123 -69 255 -58 213 -74 274 -82 309 -2 6 -35 127 -74 270 -39 143 -73
269 -75 280 -3 16 -130 489 -176 655 -5 19 -34 124 -63 233 l-54 198 -35 -68z
m-73 -1181 c3 -17 37 -144 75 -284 39 -139 73 -265 75 -280 5 -24 100 -375
110 -405 3 -10 -41 -87 -70 -120 -5 -6 -25 -33 -43 -60 -49 -71 -329 -466
-339 -478 -4 -5 -30 -43 -57 -82 -27 -40 -52 -71 -54 -68 -7 6 -17 70 -57 365
-19 140 -36 271 -39 290 -3 19 -7 56 -11 81 -3 25 -8 57 -10 70 -2 13 -9 59
-15 102 l-12 78 198 392 c109 216 205 406 213 423 17 34 26 28 36 -24z"/>
<path d="M760 8288 c0 -8 -20 -91 -45 -184 -25 -93 -48 -182 -51 -198 -3 -16
-27 -113 -55 -215 -27 -102 -52 -199 -55 -216 -3 -16 -20 -86 -39 -155 -19
-69 -62 -233 -95 -365 -34 -132 -89 -346 -122 -475 -33 -129 -78 -306 -99
-393 l-39 -157 83 -113 c45 -61 107 -147 137 -190 30 -43 63 -87 73 -99 9 -12
17 -24 17 -27 0 -3 10 -17 23 -31 12 -14 36 -45 52 -70 17 -25 35 -50 40 -56
6 -6 17 -22 25 -34 8 -12 44 -62 80 -111 36 -48 94 -129 130 -179 36 -51 106
-147 155 -215 50 -68 97 -133 105 -145 8 -12 38 -53 65 -91 124 -170 142 -196
179 -248 21 -30 44 -61 50 -67 6 -7 27 -36 46 -64 19 -28 45 -63 57 -78 l23
-27 1 25 c0 14 2 34 4 45 2 11 7 43 10 70 3 28 8 57 10 65 2 8 6 46 10 83 3
37 8 76 9 85 2 9 7 44 11 77 4 32 8 66 10 75 1 8 6 42 9 75 4 33 11 92 16 130
5 39 12 90 15 115 3 25 7 56 9 70 5 29 14 97 21 155 18 146 36 294 40 320 4
36 15 118 20 160 5 38 16 123 20 155 2 14 9 66 15 115 6 50 13 101 15 115 2
14 7 52 11 85 3 33 8 67 9 75 2 8 6 45 10 81 l7 65 -107 210 c-59 115 -136
263 -170 329 -129 248 -235 455 -311 605 -44 85 -81 157 -84 160 -3 3 -35 64
-71 135 -87 172 -271 529 -275 534 -2 2 -4 -2 -4 -11z m302 -1508 c58 -113
144 -280 191 -372 l86 -168 -9 -57 c-5 -32 -11 -85 -15 -118 -3 -33 -8 -69
-10 -80 -2 -11 -7 -47 -10 -80 -4 -32 -8 -62 -10 -65 -1 -3 -5 -37 -9 -75 -4
-39 -8 -81 -10 -95 -3 -14 -7 -50 -11 -80 -4 -30 -9 -64 -10 -75 -2 -11 -7
-47 -11 -80 -3 -33 -7 -67 -9 -75 -1 -8 -6 -43 -10 -78 l-7 -63 -52 70 c-28
38 -58 79 -66 91 -8 12 -29 41 -46 64 -17 22 -48 66 -69 96 -21 30 -42 59 -47
65 -5 5 -43 57 -84 115 -42 58 -107 149 -146 203 l-70 98 12 47 c13 51 18 75
26 109 2 12 24 97 49 190 25 92 48 182 51 198 3 17 25 104 48 195 39 147 57
214 61 230 0 3 4 23 9 45 14 73 -2 97 178 -255z"/>
<path d="M5285 6313 c-193 -23 -330 -60 -506 -138 -147 -64 -328 -181 -443
-284 -81 -74 -121 -87 -175 -57 -21 12 -28 12 -48 -1 -13 -9 -23 -19 -23 -24
0 -11 531 -579 541 -579 4 0 16 8 28 18 l22 17 -21 40 c-26 51 -26 135 -1 191
54 119 232 243 451 313 131 43 222 55 358 48 178 -9 272 -42 364 -126 67 -61
96 -115 104 -197 18 -170 -63 -290 -306 -451 -86 -57 -177 -106 -555 -296
-466 -235 -679 -391 -855 -627 -125 -169 -161 -286 -164 -535 l-1 -170 33 -3
c27 -3 32 0 32 17 0 47 -29 46 1240 46 657 0 1207 -3 1222 -8 18 -5 30 -16 34
-32 5 -21 12 -25 40 -25 l34 0 0 350 0 350 -35 0 c-30 0 -35 -3 -35 -24 0 -12
-5 -36 -10 -52 -22 -62 31 -59 -967 -62 l-913 -2 0 22 c0 16 21 39 69 76 145
113 244 160 771 367 475 187 589 249 740 405 178 183 237 346 228 625 -4 113
-10 155 -30 217 -126 384 -515 603 -1063 597 -71 -1 -143 -4 -160 -6z"/>
<path d="M8600 6257 c0 -29 6 -37 36 -53 20 -10 40 -29 45 -41 16 -43 -6 -75
-180 -263 -54 -58 -205 -222 -336 -365 -131 -143 -320 -348 -419 -455 -322
-345 -450 -485 -508 -552 l-58 -65 0 -292 0 -291 35 0 c30 0 35 4 35 23 1 31
21 54 63 72 31 13 146 15 842 15 l805 0 0 -154 c0 -85 -4 -166 -10 -180 -11
-30 -49 -56 -93 -65 -27 -6 -32 -12 -35 -39 l-3 -32 400 0 401 0 0 30 c0 24
-6 32 -34 44 -63 26 -70 49 -71 230 l0 161 112 3 c141 3 177 -9 192 -65 6 -21
11 -44 11 -50 0 -8 13 -13 30 -13 l30 0 0 355 0 355 -29 0 c-26 0 -30 -5 -40
-46 -16 -63 -46 -74 -196 -74 l-115 0 1 838 c1 460 4 846 7 857 14 40 29 56
68 70 33 11 39 17 39 42 l0 28 -512 3 -513 2 0 -33z m360 -1162 l0 -645 -585
0 c-322 0 -585 3 -585 6 0 5 272 305 465 514 44 48 220 241 390 428 171 188
311 342 313 342 1 0 2 -290 2 -645z"/>
<path d="M12450 4061 c-8 -5 -323 -138 -700 -296 -377 -157 -836 -349 -1020
-426 l-335 -141 -598 -930 c-329 -512 -597 -932 -595 -934 2 -1 530 144 1173
324 l1170 328 437 974 c533 1188 498 1110 490 1110 -4 0 -14 -5 -22 -9z m-831
-858 c-11 -27 -102 -230 -202 -452 l-182 -404 -455 -127 c-250 -70 -488 -137
-527 -148 -40 -11 -73 -17 -73 -14 0 4 114 184 254 401 l253 393 469 198 c258
109 472 198 476 199 4 0 -2 -20 -13 -46z"/>
<path d="M1582 3984 c3 -5 94 -207 203 -449 108 -242 238 -530 287 -640 50
-110 169 -375 265 -590 96 -214 175 -390 176 -391 1 -1 495 -140 1097 -309
1159 -324 1253 -351 1285 -365 11 -5 58 -26 105 -48 85 -39 102 -47 213 -96
31 -14 83 -38 115 -52 31 -14 71 -32 87 -39 17 -7 70 -32 118 -54 49 -23 90
-41 92 -41 1 0 47 -21 101 -46 173 -81 225 -104 229 -104 3 0 47 -20 99 -45
53 -25 97 -45 100 -45 2 0 44 -18 93 -41 48 -23 106 -49 128 -59 22 -10 84
-39 139 -64 54 -25 100 -46 102 -46 3 0 37 -15 77 -34 266 -124 363 -166 384
-166 9 0 79 31 157 69 78 38 213 103 301 146 88 43 232 112 320 155 88 43 232
113 320 155 88 42 232 112 320 155 136 66 286 139 573 277 57 28 57 35 2 51
-46 14 -340 106 -460 144 -52 16 -102 31 -110 33 -8 2 -60 18 -115 35 -170 53
-435 136 -545 170 -58 18 -130 40 -160 50 -30 10 -145 46 -255 80 -110 34
-249 78 -310 97 -144 46 -134 44 -207 22 -35 -11 -71 -22 -81 -24 -9 -2 -50
-15 -90 -28 -39 -14 -112 -37 -162 -52 -49 -14 -108 -33 -130 -42 -22 -8 -42
-14 -45 -14 -5 1 -106 -29 -250 -75 -41 -13 -88 -28 -105 -33 -97 -30 -311
-96 -375 -116 -41 -14 -221 -70 -400 -125 -179 -56 -344 -107 -367 -115 l-42
-13 -197 306 c-109 169 -327 507 -484 752 -395 614 -512 795 -515 798 -1 2
-315 133 -696 293 -382 160 -845 353 -1029 431 -184 77 -341 142 -349 146 -8
3 -12 1 -9 -4z m1298 -1003 c239 -100 450 -189 468 -199 25 -13 85 -100 282
-407 138 -214 247 -391 242 -393 -7 -2 -1043 286 -1049 292 -1 1 -31 67 -67
147 -35 79 -118 265 -185 413 -155 342 -154 339 -138 333 6 -3 208 -87 447
-186z m4157 -1532 c15 -6 35 -12 43 -14 8 -2 58 -17 110 -34 52 -16 176 -55
275 -86 414 -130 499 -158 485 -163 -17 -6 -220 -103 -580 -279 -335 -163
-290 -151 -391 -105 -46 22 -109 51 -139 64 -30 14 -75 35 -100 46 -25 11 -70
32 -100 45 -30 14 -82 37 -115 52 -33 14 -76 34 -95 42 -19 9 -66 30 -105 48
-38 18 -108 49 -155 70 -47 22 -88 42 -92 45 -5 3 40 21 100 39 59 18 186 58
282 88 96 30 234 72 305 94 72 22 139 44 150 49 28 12 89 12 122 -1z"/>
</g>
</svg>
